<mxfile host="65bd71144e">
    <diagram id="g9x4P5zSO4WS4tSMn_Hg" name="Page-1">
        <mxGraphModel dx="833" dy="612" grid="1" gridSize="10" guides="1" tooltips="1" connect="1" arrows="1" fold="1" page="1" pageScale="1" pageWidth="850" pageHeight="1100" math="0" shadow="0">
            <root>
                <mxCell id="0"/>
                <mxCell id="1" parent="0"/>
                <mxCell id="4" value="" style="edgeStyle=none;html=1;" parent="1" source="2" target="3" edge="1">
                    <mxGeometry relative="1" as="geometry"/>
                </mxCell>
                <mxCell id="2" value="what would you like? (espresso/latte/cappuccino):&amp;nbsp;" style="rounded=1;whiteSpace=wrap;html=1;" parent="1" vertex="1">
                    <mxGeometry x="230" y="10" width="200" height="50" as="geometry"/>
                </mxCell>
                <mxCell id="5" style="edgeStyle=none;html=1;exitX=0.5;exitY=1;exitDx=0;exitDy=0;" parent="1" source="3" edge="1">
                    <mxGeometry relative="1" as="geometry">
                        <mxPoint x="335" y="210" as="targetPoint"/>
                    </mxGeometry>
                </mxCell>
                <mxCell id="33" value="" style="edgeStyle=none;html=1;" edge="1" parent="1" source="3" target="32">
                    <mxGeometry relative="1" as="geometry"/>
                </mxCell>
                <mxCell id="3" value="make a choice" style="rhombus;whiteSpace=wrap;html=1;rounded=1;" parent="1" vertex="1">
                    <mxGeometry x="270" y="100" width="130" height="80" as="geometry"/>
                </mxCell>
                <mxCell id="8" value="" style="edgeStyle=none;html=1;" parent="1" source="6" target="7" edge="1">
                    <mxGeometry relative="1" as="geometry">
                        <Array as="points">
                            <mxPoint x="470" y="260"/>
                        </Array>
                    </mxGeometry>
                </mxCell>
                <mxCell id="11" value="" style="edgeStyle=none;html=1;" parent="1" source="6" target="10" edge="1">
                    <mxGeometry relative="1" as="geometry"/>
                </mxCell>
                <mxCell id="6" value="enough resouse?" style="rhombus;whiteSpace=wrap;html=1;" parent="1" vertex="1">
                    <mxGeometry x="250" y="220" width="170" height="80" as="geometry"/>
                </mxCell>
                <mxCell id="13" value="" style="edgeStyle=none;html=1;entryX=1;entryY=0.5;entryDx=0;entryDy=0;exitX=0.564;exitY=-0.036;exitDx=0;exitDy=0;exitPerimeter=0;" parent="1" source="7" target="2" edge="1">
                    <mxGeometry relative="1" as="geometry">
                        <mxPoint x="590" y="220" as="sourcePoint"/>
                        <mxPoint x="580" y="60" as="targetPoint"/>
                        <Array as="points">
                            <mxPoint x="593" y="35"/>
                        </Array>
                    </mxGeometry>
                </mxCell>
                <mxCell id="7" value="Sorry, there is not enough xxx" style="whiteSpace=wrap;html=1;" parent="1" vertex="1">
                    <mxGeometry x="525" y="230" width="120" height="60" as="geometry"/>
                </mxCell>
                <mxCell id="9" value="NO" style="text;html=1;strokeColor=none;fillColor=none;align=center;verticalAlign=middle;whiteSpace=wrap;rounded=0;" parent="1" vertex="1">
                    <mxGeometry x="440" y="230" width="60" height="30" as="geometry"/>
                </mxCell>
                <mxCell id="16" value="" style="edgeStyle=none;html=1;" parent="1" source="10" target="15" edge="1">
                    <mxGeometry relative="1" as="geometry"/>
                </mxCell>
                <mxCell id="10" value="Please insert coins.&lt;br&gt;how many quarters?:&lt;br&gt;how many dimes?:&amp;nbsp;&lt;br&gt;how many nickles?:&lt;br&gt;how many pennies?" style="whiteSpace=wrap;html=1;" parent="1" vertex="1">
                    <mxGeometry x="245" y="360" width="185" height="90" as="geometry"/>
                </mxCell>
                <mxCell id="14" value="YES" style="text;html=1;strokeColor=none;fillColor=none;align=center;verticalAlign=middle;whiteSpace=wrap;rounded=0;" parent="1" vertex="1">
                    <mxGeometry x="275" y="320" width="60" height="30" as="geometry"/>
                </mxCell>
                <mxCell id="20" value="" style="edgeStyle=none;html=1;" parent="1" source="15" target="19" edge="1">
                    <mxGeometry relative="1" as="geometry"/>
                </mxCell>
                <mxCell id="15" value="Calculate the total money $" style="whiteSpace=wrap;html=1;" parent="1" vertex="1">
                    <mxGeometry x="277.5" y="480" width="120" height="60" as="geometry"/>
                </mxCell>
                <mxCell id="22" value="" style="edgeStyle=none;html=1;" parent="1" source="19" target="21" edge="1">
                    <mxGeometry relative="1" as="geometry"/>
                </mxCell>
                <mxCell id="26" value="" style="edgeStyle=none;html=1;startArrow=none;" parent="1" source="28" target="25" edge="1">
                    <mxGeometry relative="1" as="geometry"/>
                </mxCell>
                <mxCell id="19" value="enough money?" style="rhombus;whiteSpace=wrap;html=1;" parent="1" vertex="1">
                    <mxGeometry x="295" y="590" width="80" height="80" as="geometry"/>
                </mxCell>
                <mxCell id="21" value="Sorry, there is not enough money. Money refunded." style="whiteSpace=wrap;html=1;" parent="1" vertex="1">
                    <mxGeometry x="115" y="600" width="120" height="60" as="geometry"/>
                </mxCell>
                <mxCell id="23" value="NO" style="text;html=1;strokeColor=none;fillColor=none;align=center;verticalAlign=middle;whiteSpace=wrap;rounded=0;" parent="1" vertex="1">
                    <mxGeometry x="245" y="600" width="60" height="30" as="geometry"/>
                </mxCell>
                <mxCell id="24" value="" style="endArrow=classic;html=1;entryX=0;entryY=0.5;entryDx=0;entryDy=0;" parent="1" target="2" edge="1">
                    <mxGeometry width="50" height="50" relative="1" as="geometry">
                        <mxPoint x="170" y="600" as="sourcePoint"/>
                        <mxPoint x="170" y="30" as="targetPoint"/>
                        <Array as="points">
                            <mxPoint x="170" y="35"/>
                        </Array>
                    </mxGeometry>
                </mxCell>
                <mxCell id="25" value="Calculate the change&lt;br&gt;Here is $xx in change.&lt;br&gt;Here is your XX (emoji). Enjoy!" style="whiteSpace=wrap;html=1;" parent="1" vertex="1">
                    <mxGeometry x="230" y="740" width="210" height="60" as="geometry"/>
                </mxCell>
                <mxCell id="27" value="" style="edgeStyle=none;html=1;endArrow=none;" parent="1" source="19" target="28" edge="1">
                    <mxGeometry relative="1" as="geometry">
                        <mxPoint x="335.8888888888889" y="669.1111111111111" as="sourcePoint"/>
                        <mxPoint x="336.81818181818176" y="710" as="targetPoint"/>
                    </mxGeometry>
                </mxCell>
                <mxCell id="28" value="YES" style="text;html=1;strokeColor=none;fillColor=none;align=center;verticalAlign=middle;whiteSpace=wrap;rounded=0;" parent="1" vertex="1">
                    <mxGeometry x="307.5" y="680" width="60" height="30" as="geometry"/>
                </mxCell>
                <mxCell id="31" value="" style="endArrow=classic;html=1;entryX=1;entryY=0;entryDx=0;entryDy=0;" parent="1" target="2" edge="1">
                    <mxGeometry width="50" height="50" relative="1" as="geometry">
                        <mxPoint x="440" y="770" as="sourcePoint"/>
                        <mxPoint x="680" y="770" as="targetPoint"/>
                        <Array as="points">
                            <mxPoint x="700" y="770"/>
                            <mxPoint x="700" y="380"/>
                            <mxPoint x="700" y="10"/>
                        </Array>
                    </mxGeometry>
                </mxCell>
                <mxCell id="32" value="show the leftover resources" style="whiteSpace=wrap;html=1;rounded=1;" vertex="1" parent="1">
                    <mxGeometry x="450" y="115" width="120" height="50" as="geometry"/>
                </mxCell>
                <mxCell id="34" value="report" style="text;html=1;align=center;verticalAlign=middle;resizable=0;points=[];autosize=1;strokeColor=none;fillColor=none;" vertex="1" parent="1">
                    <mxGeometry x="395" y="115" width="50" height="30" as="geometry"/>
                </mxCell>
            </root>
        </mxGraphModel>
    </diagram>
</mxfile>